<svg width="512" height="512" viewBox="0 0 512 512" fill="none" xmlns="http://www.w3.org/2000/svg">
  <rect width="512" height="512" rx="100" fill="#000000"/>
  <path d="M144.4 366.5C144.4 366.5 144.4 366.5 144.4 366.5L144.4 366.4L144.3 366.3C116.6 331.4 100.8 290.7 100.8 248.6C100.8 163.7 170.2 94.6 256 94.6C341.8 94.6 411.2 163.7 411.2 248.6C411.2 333.5 341.8 402.6 256 402.6C230.9 402.6 207.1 396.6 185.7 386.1L128.5 407.7C124.9 409.1 120.9 406.4 120.9 402.6V354.7C120.9 354.7 120.9 354.7 120.9 354.7L120.9 354.7C128.4 358.5 136.3 362.7 144.4 366.5Z" fill="#F97316"/>
  <circle cx="186" cy="248" r="22" fill="#000000"/>
  <circle cx="256" cy="248" r="22" fill="#000000"/>
  <circle cx="326" cy="248" r="22" fill="#000000"/>
</svg>
